<?xml version="1.0" encoding="UTF-8" standalone="no"?>
<!DOCTYPE svg PUBLIC "-//W3C//DTD SVG 1.1//EN" "http://www.w3.org/Graphics/SVG/1.1/DTD/svg11.dtd">
<svg width="100%" height="100%" viewBox="0 0 1777 1840" version="1.1" xmlns="http://www.w3.org/2000/svg" xmlns:xlink="http://www.w3.org/1999/xlink" xml:space="preserve" xmlns:serif="http://www.serif.com/" style="fill-rule:evenodd;clip-rule:evenodd;stroke-linejoin:round;stroke-miterlimit:2;">
    <g transform="matrix(0.1,0,0,-0.1,-109.279,1896.92)">
        <path d="M7061,18959C6410,18909 5739,18632 5270,18221C4734,17750 4414,17169 4246,16365C4231,16291 4215,16187 4200,16055C4195,16011 4193,15851 4195,15700C4198,15460 4201,15406 4224,15275C4301,14822 4467,14383 4698,14020C4830,13812 4945,13652 5167,13371C5178,13356 5176,13386 5159,13460C5091,13768 5053,14281 5080,14535C5117,14887 5141,15011 5216,15238C5273,15406 5325,15514 5427,15667C5611,15945 5892,16156 6223,16265C6394,16321 6497,16340 6675,16347C6801,16352 7010,16336 7110,16315C7124,16312 7153,16305 7175,16300C7197,16295 7247,16284 7285,16276C7492,16233 7779,16131 8430,15869C8576,15810 8937,15688 9079,15650C9158,15628 9286,15599 9364,15586C9494,15563 9556,15555 9775,15531C9982,15508 10298,15524 10525,15569C10580,15580 10626,15588 10627,15587C10628,15586 10594,15567 10552,15546C9812,15171 9237,14712 8759,14115C8452,13732 8249,13372 8108,12960C7990,12615 7940,12312 7940,11953C7940,11651 7962,11462 8026,11205C8123,10816 8255,10514 8478,10166C8611,9959 8827,9669 8996,9470C9213,9215 9581,8809 9754,8633C9835,8550 9887,8490 9878,8490C9757,8490 9425,8449 9230,8410C8520,8267 7897,7953 7350,7463C7052,7196 6791,6879 6581,6525C6431,6272 6353,6106 6253,5821C6021,5157 5974,4400 6121,3685C6231,3146 6440,2677 6777,2207C7073,1796 7479,1421 7913,1161C8243,964 8543,831 8877,735C9566,537 10234,518 10925,677C11739,864 12500,1328 13051,1975C13178,2125 13233,2198 13345,2369C13491,2593 13559,2717 13668,2960C13770,3186 13880,3514 13910,3680C13914,3705 13927,3772 13938,3830C13949,3888 13963,3978 13969,4030C13975,4082 13983,4145 13986,4170C13999,4268 14002,4670 13990,4805C13971,5035 13965,5073 13914,5320C13858,5587 13752,5958 13707,6046C13695,6070 13694,6087 13703,6140C13708,6176 13713,6342 13714,6510C13715,6752 13711,6841 13697,6940C13666,7161 13628,7344 13579,7505C13443,7954 13280,8291 13002,8695C12706,9126 12393,9471 11525,10325C11025,10816 10956,10892 10833,11091C10692,11317 10592,11595 10559,11850C10539,11999 10542,12290 10564,12415C10637,12832 10892,13273 11290,13671C11714,14095 12115,14350 13040,14783C13441,14970 13736,15131 13920,15263C14406,15609 14682,16084 14682,16575C14682,16806 14646,16970 14550,17165C14501,17265 14433,17368 14379,17426L14350,17456L14272,17418C14077,17321 13762,17278 13420,17300C12998,17327 12576,17409 12015,17570C11630,17681 11118,17868 10430,18150C10028,18314 9457,18529 9115,18646C8734,18776 8260,18892 7939,18934C7674,18969 7320,18979 7061,18959ZM12700,16420C12620,16361 12381,16156 12230,16015C11716,15535 11325,15085 10977,14574C10819,14340 10723,14179 10606,13945C10445,13627 10377,13456 10315,13216C10272,13051 10256,12951 10234,12725C10217,12552 10217,12538 10235,12370C10263,12103 10305,11923 10396,11691C10444,11568 10535,11381 10601,11273L10641,11205L10598,11250C10326,11534 10062,11911 9904,12245C9826,12409 9742,12669 9724,12800C9721,12825 9714,12865 9709,12890C9703,12915 9697,13043 9695,13175C9690,13491 9712,13648 9800,13923C9942,14373 10164,14740 10511,15104C10630,15229 10772,15352 10955,15489C11016,15535 11073,15578 11082,15585C11109,15607 11387,15792 11465,15840C11641,15949 12059,16168 12248,16250C12312,16278 12386,16310 12411,16321C12508,16365 12715,16446 12720,16442C12723,16440 12714,16430 12700,16420ZM10038,8335C10049,8321 10186,8178 10342,8017C10915,7427 11180,7128 11482,6730C11913,6160 12160,5665 12253,5180C12306,4907 12308,4679 12261,4450C12256,4425 12247,4382 12242,4354C12204,4170 12076,3916 11909,3694C11822,3578 11618,3371 11486,3266C11183,3023 10814,2828 10420,2702C10351,2680 10259,2655 10215,2645C10082,2616 10092,2608 10255,2614C10723,2631 11182,2748 11615,2961C11830,3066 11867,3087 12034,3198C12367,3418 12724,3756 12979,4095C13148,4318 13334,4649 13437,4910C13506,5084 13576,5323 13618,5527C13633,5600 13648,5660 13651,5660C13665,5660 13679,5048 13666,5009C13663,5001 13659,4972 13656,4943C13644,4825 13598,4570 13565,4442C13370,3665 12872,2996 12180,2580C12100,2532 12006,2479 11970,2462C11756,2361 11725,2349 11540,2295C11322,2232 11176,2205 10940,2183C10783,2169 10731,2169 10598,2179C9884,2232 9278,2528 8738,3086C8427,3408 8198,3768 8032,4195C7949,4409 7909,4552 7860,4810C7849,4868 7836,4938 7830,4965C7809,5073 7798,5299 7804,5500C7816,5905 7882,6236 8024,6607C8229,7144 8621,7639 9086,7951C9325,8111 9688,8279 9930,8341C10016,8364 10016,8364 10038,8335Z" style="fill-rule:nonzero;"/>
        <path d="M5420,10323C5276,10297 5007,10183 4868,10089C4837,10067 4809,10050 4806,10050C4795,10050 4642,9944 4540,9866C4163,9577 3852,9285 3634,9015C3612,8988 3565,8929 3529,8885C3364,8682 3157,8333 3102,8164C3045,7993 3049,7982 3120,8115C3217,8295 3426,8593 3571,8755C3844,9062 4174,9329 4383,9411C4444,9435 4472,9435 4495,9410C4531,9370 4496,9193 4394,8895C4335,8723 4206,8385 4162,8290C4151,8265 4113,8180 4077,8100C3634,7116 2942,6083 2256,5381C1872,4988 1555,4716 1216,4488C1144,4439 1089,4400 1093,4400C1096,4400 1166,4421 1247,4446C2031,4689 2760,5085 3445,5639C3695,5842 4411,6559 4661,6870C5252,7605 5721,8504 5904,9252C5923,9331 5942,9415 5945,9440C5949,9465 5955,9505 5960,9530C5965,9555 5971,9634 5974,9706C5981,9871 5965,9964 5910,10076C5829,10242 5682,10333 5502,10329C5471,10328 5434,10325 5420,10323Z" style="fill-rule:nonzero;"/>
        <path d="M13850,10182C13850,10178 13870,10162 13895,10147C13943,10116 14086,10003 14159,9938C14316,9799 14584,9519 14700,9375C14735,9331 14780,9275 14800,9250C15067,8918 15365,8493 15646,8040C15913,7612 15978,7504 16090,7310C16152,7203 16226,7075 16255,7025C16284,6976 16320,6913 16336,6885C16351,6858 16407,6759 16460,6665C16514,6572 16595,6428 16640,6345C16871,5927 17084,5570 17277,5278C17516,4917 17782,4623 17969,4511C18092,4438 18139,4425 18275,4425C18382,4426 18402,4429 18458,4452C18582,4505 18699,4611 18757,4723C18828,4862 18860,5030 18860,5269C18860,5474 18844,5619 18794,5867C18741,6127 18755,6071 18645,6470C18568,6750 18385,7236 18220,7600C18147,7760 17915,8225 17840,8360C17702,8609 17420,9086 17390,9122L17370,9145L17384,9100C17391,9075 17420,8985 17448,8900C17611,8399 17706,8057 17829,7520C17906,7183 17967,6729 17957,6566C17954,6518 17948,6475 17945,6472C17936,6462 17903,6509 17886,6555C17878,6577 17850,6654 17825,6725C17648,7223 17469,7588 17232,7935C17048,8204 16757,8516 16424,8800C15968,9190 15548,9469 15065,9705C14880,9795 14844,9812 14710,9872C14618,9914 14438,9987 14355,10017C14093,10111 14025,10135 13943,10160C13892,10175 13850,10185 13850,10182Z" style="fill-rule:nonzero;"/>
    </g>
</svg>
